<svg width="40" height="41" viewBox="0 0 40 41" fill="none" xmlns="http://www.w3.org/2000/svg">
<g clip-path="url(#clip0_307_140)">
<rect opacity="0.1" y="0.404297" width="40" height="40" rx="20" fill="#5A7184"/>
<path d="M26.3333 13.7375H14.3021C13.7708 13.7375 13.3333 14.2063 13.3333 14.7688V26.7375C13.3333 27.3 13.7708 27.7375 14.3021 27.7375H26.3333C26.8646 27.7375 27.3333 27.3 27.3333 26.7375V14.7688C27.3333 14.2063 26.8646 13.7375 26.3333 13.7375ZM17.5521 25.7375H15.4896V19.0813H17.5521V25.7375ZM16.5208 18.1438C15.8333 18.1438 15.3021 17.6125 15.3021 16.9563C15.3021 16.3 15.8333 15.7375 16.5208 15.7375C17.1771 15.7375 17.7083 16.3 17.7083 16.9563C17.7083 17.6125 17.1771 18.1438 16.5208 18.1438ZM25.3333 25.7375H23.2396V22.4875C23.2396 21.7375 23.2396 20.7375 22.1771 20.7375C21.0833 20.7375 20.9271 21.5813 20.9271 22.4563V25.7375H18.8646V19.0813H20.8333V19.9875H20.8646C21.1458 19.4563 21.8333 18.8938 22.8333 18.8938C24.9271 18.8938 25.3333 20.3 25.3333 22.0813V25.7375Z" fill="#5A7184"/>
</g>
<defs>
<clipPath id="clip0_307_140">
<rect width="40" height="40.0599" fill="white" transform="translate(0 0.404297)"/>
</clipPath>
</defs>
</svg>
