<svg width="40" height="41" viewBox="0 0 40 41" fill="none" xmlns="http://www.w3.org/2000/svg">
<g clip-path="url(#clip0_307_135)">
<rect opacity="0.1" y="0.404297" width="40" height="40" rx="20" fill="#5A7184"/>
<path d="M20.3333 17.1438C18.3333 17.1438 16.7396 18.7688 16.7396 20.7375C16.7396 22.7375 18.3333 24.3313 20.3333 24.3313C22.3021 24.3313 23.9271 22.7375 23.9271 20.7375C23.9271 18.7688 22.3021 17.1438 20.3333 17.1438ZM20.3333 23.0813C19.0521 23.0813 17.9896 22.05 17.9896 20.7375C17.9896 19.4563 19.0208 18.425 20.3333 18.425C21.6146 18.425 22.6458 19.4563 22.6458 20.7375C22.6458 22.05 21.6146 23.0813 20.3333 23.0813ZM24.8958 17.0188C24.8958 16.55 24.5208 16.175 24.0521 16.175C23.5833 16.175 23.2083 16.55 23.2083 17.0188C23.2083 17.4875 23.5833 17.8625 24.0521 17.8625C24.5208 17.8625 24.8958 17.4875 24.8958 17.0188ZM27.2708 17.8625C27.2083 16.7375 26.9583 15.7375 26.1458 14.925C25.3333 14.1125 24.3333 13.8625 23.2083 13.8C22.0521 13.7375 18.5833 13.7375 17.4271 13.8C16.3021 13.8625 15.3333 14.1125 14.4896 14.925C13.6771 15.7375 13.4271 16.7375 13.3646 17.8625C13.3021 19.0188 13.3021 22.4875 13.3646 23.6438C13.4271 24.7688 13.6771 25.7375 14.4896 26.5813C15.3333 27.3938 16.3021 27.6438 17.4271 27.7063C18.5833 27.7688 22.0521 27.7688 23.2083 27.7063C24.3333 27.6438 25.3333 27.3938 26.1458 26.5813C26.9583 25.7375 27.2083 24.7688 27.2708 23.6438C27.3333 22.4875 27.3333 19.0188 27.2708 17.8625ZM25.7708 24.8625C25.5521 25.4875 25.0521 25.9563 24.4583 26.2063C23.5208 26.5813 21.3333 26.4875 20.3333 26.4875C19.3021 26.4875 17.1146 26.5813 16.2083 26.2063C15.5833 25.9563 15.1146 25.4875 14.8646 24.8625C14.4896 23.9563 14.5833 21.7688 14.5833 20.7375C14.5833 19.7375 14.4896 17.55 14.8646 16.6125C15.1146 16.0188 15.5833 15.55 16.2083 15.3C17.1146 14.925 19.3021 15.0188 20.3333 15.0188C21.3333 15.0188 23.5208 14.925 24.4583 15.3C25.0521 15.5188 25.5208 16.0188 25.7708 16.6125C26.1458 17.55 26.0521 19.7375 26.0521 20.7375C26.0521 21.7688 26.1458 23.9563 25.7708 24.8625Z" fill="#5A7184"/>
</g>
<defs>
<clipPath id="clip0_307_135">
<rect width="40" height="40.0599" fill="white" transform="translate(0 0.404297)"/>
</clipPath>
</defs>
</svg>
