<svg width="1280" height="700" viewBox="0 0 1280 700" fill="none" xmlns="http://www.w3.org/2000/svg">
<g clip-path="url(#clip0_0_237)">
<rect width="1280" height="700" fill="#E8EAE9"/>
<mask id="mask0_0_237" style="mask-type:alpha" maskUnits="userSpaceOnUse" x="0" y="0" width="1280" height="700">
<rect width="1280" height="700" fill="white"/>
</mask>
<g mask="url(#mask0_0_237)">
<rect x="358" y="-377" width="1074" height="1614"/>
<mask id="mask1_0_237" style="mask-type:alpha" maskUnits="userSpaceOnUse" x="358" y="-377" width="1074" height="1614">
<rect x="358" y="-377" width="1074" height="1614"/>
</mask>
<g mask="url(#mask1_0_237)">
<rect x="358" y="-377" width="1074" height="1614" fill="url(#paint0_linear_0_237)"/>
</g>
</g>
<path d="M1226.58 648.026C1228.82 648.026 1230.48 648.396 1231.56 649.134C1232.64 649.866 1233.18 650.997 1233.18 652.526C1233.18 654.009 1232.62 655.128 1231.51 655.884C1230.39 656.634 1228.75 657.009 1226.58 657.009C1224.31 657.009 1222.64 656.643 1221.57 655.91C1220.49 655.178 1219.95 654.05 1219.95 652.526C1219.95 651.044 1220.51 649.925 1221.64 649.169C1222.76 648.407 1224.41 648.026 1226.58 648.026ZM1226.58 654.311C1228.15 654.311 1229.28 654.176 1229.97 653.906C1230.65 653.631 1230.99 653.171 1230.99 652.526C1230.99 651.894 1230.64 651.437 1229.95 651.155C1229.26 650.874 1228.13 650.733 1226.58 650.733C1225 650.733 1223.87 650.877 1223.18 651.164C1222.49 651.445 1222.15 651.899 1222.15 652.526C1222.15 653.165 1222.49 653.622 1223.18 653.897C1223.87 654.173 1225 654.311 1226.58 654.311ZM1233 639.94V642.656H1225.56L1224.34 642.63L1223.01 642.586C1223.46 643.037 1223.75 643.351 1223.89 643.526L1225.08 645.003L1223.45 646.312L1220.15 642.173V639.94H1233ZM1220.15 625.069L1233 629.859V632.294L1220.15 627.504V625.069ZM1233 610.822L1229.94 611.754V616.438L1233 617.37V620.306L1220.1 615.771V612.439L1233 607.887V610.822ZM1227.66 612.404C1224.88 613.266 1223.32 613.752 1222.95 613.863C1222.59 613.969 1222.3 614.045 1222.09 614.092C1222.84 614.285 1224.7 614.839 1227.66 615.753V612.404ZM1225.85 603.536V602.657C1225.85 601.796 1225.71 601.16 1225.42 600.75C1225.14 600.34 1224.69 600.135 1224.07 600.135C1223.46 600.135 1223.03 600.346 1222.77 600.768C1222.51 601.184 1222.38 601.831 1222.38 602.71V603.536H1225.85ZM1228.07 603.536H1233V606.261H1220.15V602.517C1220.15 600.771 1220.47 599.479 1221.11 598.641C1221.74 597.803 1222.71 597.384 1224 597.384C1224.76 597.384 1225.43 597.592 1226.02 598.008C1226.61 598.424 1227.07 599.013 1227.4 599.774C1230.29 597.841 1232.16 596.581 1233 595.995V599.019L1228.07 602.086V603.536ZM1233 589.421V592.146H1222.42V595.635H1220.15V585.932H1222.42V589.421H1233ZM1233 583.954H1220.15V581.229H1233V583.954ZM1222.23 572.537C1222.23 573.562 1222.62 574.356 1223.39 574.919C1224.16 575.481 1225.23 575.763 1226.61 575.763C1229.48 575.763 1230.91 574.688 1230.91 572.537C1230.91 571.635 1230.68 570.542 1230.23 569.259H1232.52C1232.96 570.313 1233.18 571.491 1233.18 572.792C1233.18 574.661 1232.61 576.091 1231.48 577.081C1230.34 578.071 1228.71 578.566 1226.59 578.566C1225.26 578.566 1224.09 578.323 1223.09 577.837C1222.08 577.351 1221.31 576.653 1220.77 575.745C1220.24 574.831 1219.97 573.762 1219.97 572.537C1219.97 571.289 1220.27 570.035 1220.87 568.775L1223.09 569.654C1222.86 570.135 1222.66 570.618 1222.49 571.104C1222.32 571.591 1222.23 572.068 1222.23 572.537ZM1233 566.517H1220.15V563.792H1230.75V558.58H1233V566.517ZM1233 548.938V556.339H1220.15V548.938H1222.38V553.614H1225.2V549.264H1227.44V553.614H1230.75V548.938H1233ZM1226.58 533.558C1228.82 533.558 1230.48 533.927 1231.56 534.665C1232.64 535.397 1233.18 536.528 1233.18 538.058C1233.18 539.54 1232.62 540.659 1231.51 541.415C1230.39 542.165 1228.75 542.54 1226.58 542.54C1224.31 542.54 1222.64 542.174 1221.57 541.441C1220.49 540.709 1219.95 539.581 1219.95 538.058C1219.95 536.575 1220.51 535.456 1221.64 534.7C1222.76 533.938 1224.41 533.558 1226.58 533.558ZM1226.58 539.842C1228.15 539.842 1229.28 539.707 1229.97 539.438C1230.65 539.162 1230.99 538.702 1230.99 538.058C1230.99 537.425 1230.64 536.968 1229.95 536.687C1229.26 536.405 1228.13 536.265 1226.58 536.265C1225 536.265 1223.87 536.408 1223.18 536.695C1222.49 536.977 1222.15 537.431 1222.15 538.058C1222.15 538.696 1222.49 539.153 1223.18 539.429C1223.87 539.704 1225 539.842 1226.58 539.842ZM1233 525.472V528.188H1225.56L1224.34 528.161L1223.01 528.117C1223.46 528.568 1223.75 528.882 1223.89 529.058L1225.08 530.534L1223.45 531.844L1220.15 527.704V525.472H1233ZM1223.02 513.422C1223.83 513.422 1224.51 513.665 1225.07 514.151C1225.63 514.638 1226.02 515.32 1226.23 516.199H1226.29C1226.41 515.162 1226.73 514.377 1227.23 513.844C1227.73 513.311 1228.41 513.044 1229.26 513.044C1230.49 513.044 1231.46 513.492 1232.15 514.389C1232.83 515.285 1233.18 516.565 1233.18 518.229C1233.18 519.624 1232.94 520.86 1232.48 521.938H1230.17C1230.42 521.44 1230.63 520.893 1230.79 520.295C1230.94 519.697 1231.02 519.105 1231.02 518.52C1231.02 517.623 1230.87 516.961 1230.57 516.533C1230.26 516.105 1229.77 515.892 1229.1 515.892C1228.49 515.892 1228.07 516.138 1227.81 516.63C1227.56 517.122 1227.44 517.907 1227.44 518.985V519.961H1225.35V518.968C1225.35 517.972 1225.22 517.245 1224.97 516.788C1224.7 516.325 1224.25 516.094 1223.62 516.094C1222.65 516.094 1222.16 516.703 1222.16 517.922C1222.16 518.344 1222.23 518.774 1222.37 519.214C1222.51 519.647 1222.76 520.131 1223.1 520.664L1221.23 521.921C1220.39 520.749 1219.97 519.352 1219.97 517.729C1219.97 516.398 1220.24 515.35 1220.77 514.582C1221.31 513.809 1222.06 513.422 1223.02 513.422Z" fill="#183B56"/>
</g>
<defs>
<linearGradient id="paint0_linear_0_237" x1="708.764" y1="108.147" x2="358" y2="108.147" gradientUnits="userSpaceOnUse">
<stop stop-color="#EEEEEE" stop-opacity="0.01"/>
<stop offset="1" stop-color="#E8EAE9"/>
</linearGradient>
<clipPath id="clip0_0_237">
<rect width="1280" height="700" rx="8" fill="white"/>
</clipPath>
</defs>
</svg>
