<svg width="22" height="22" viewBox="0 0 22 22" fill="none" xmlns="http://www.w3.org/2000/svg">
<path fill-rule="evenodd" clip-rule="evenodd" d="M18.7026 4.93502L11.1426 2.20502C11.0505 2.17173 10.9495 2.17173 10.8573 2.20502L3.29734 4.93502C3.1309 4.99512 3.01999 5.1531 3.01999 5.33005V11.0001C3.01999 15.4525 5.67912 18.4071 10.8911 19.8057C10.9634 19.8251 11.0395 19.8248 11.1116 19.805C16.3219 18.3687 18.98 15.4152 18.98 11.0001V5.33005C18.98 5.1531 18.8691 4.99512 18.7026 4.93502ZM8.10047 10.2654C8.26851 10.1055 8.53435 10.1121 8.69425 10.2801L10.3933 12.0657L13.9612 8.19538C14.1184 8.02483 14.3841 8.01403 14.5547 8.17125C14.7252 8.32847 14.736 8.59418 14.5788 8.76473L10.707 12.9647C10.5424 13.1432 10.2612 13.1455 10.0939 12.9696L8.08573 10.8592C7.92583 10.6911 7.93243 10.4253 8.10047 10.2654Z" fill="#1565D8"/>
</svg>
