<svg width="22" height="22" viewBox="0 0 22 22" fill="none" xmlns="http://www.w3.org/2000/svg">
<path fill-rule="evenodd" clip-rule="evenodd" d="M11.6628 12.6182C12.1853 11.4831 11.7038 10.5479 10.3737 9.96868L8.17002 9.05878C7.45609 8.76403 6.63808 8.8855 6.04046 9.37502L4.01386 11.035L3.95492 11.626L3.85999 16.46V17.3H6.31194L11.3126 18.7209C11.9435 18.9001 12.6218 18.774 13.1461 18.3799C16.441 15.9032 18.6426 14.2309 18.976 13.9209C19.7842 13.1693 20.1025 12.3338 19.5265 11.5101C19.061 10.8443 18.276 10.7733 17.303 11.2138L12.5706 13.6206L11.2399 13.1975C11.4115 13.0495 11.553 12.8569 11.6628 12.6182Z" fill="#1565D8"/>
<path opacity="0.3" fill-rule="evenodd" clip-rule="evenodd" d="M16.2106 3.86094H15.2V3.65048C15.2 3.30234 14.918 3.02002 14.57 3.02002C14.222 3.02002 13.94 3.30234 13.94 3.65048V3.86094H13.7417C12.9298 3.86094 12.2717 4.51975 12.2717 5.33232V5.75342C12.2717 6.56599 12.9298 7.2248 13.7417 7.2248H15.41C15.5259 7.2248 15.62 7.31897 15.62 7.43526V7.85508C15.62 7.97137 15.5259 8.06554 15.41 8.06554H13.4824C13.3891 7.84436 13.1735 7.68807 12.9209 7.68038C12.573 7.66979 12.2826 7.9434 12.272 8.29139L12.2603 8.67685C12.2495 9.03233 12.5345 9.32646 12.89 9.32646H13.94V9.52956C13.94 9.8777 14.222 10.16 14.57 10.16C14.918 10.16 15.2 9.8777 15.2 9.52956V9.32646H15.41C16.2219 9.32646 16.88 8.66765 16.88 7.85508V7.43526C16.88 6.62269 16.2219 5.96388 15.41 5.96388H13.7417C13.6258 5.96388 13.5317 5.8697 13.5317 5.75342V5.33232C13.5317 5.21604 13.6258 5.12186 13.7417 5.12186H15.6631C15.7726 5.31404 15.9789 5.44018 16.2106 5.44018C16.5586 5.44018 16.8406 5.15786 16.8406 4.80972V4.4914C16.8406 4.14326 16.5586 3.86094 16.2106 3.86094ZM3.44 9.95002H3.65V17.93H3.44C3.09206 17.93 2.81 18.2121 2.81 18.56C2.81 18.908 3.09206 19.19 3.44 19.19H4.28C4.62794 19.19 4.91 18.908 4.91 18.56V9.32002C4.91 8.97208 4.62794 8.69002 4.28 8.69002H3.44C3.09206 8.69002 2.81 8.97208 2.81 9.32002C2.81 9.66796 3.09206 9.95002 3.44 9.95002Z" fill="#1565D8"/>
</svg>
