<svg width="22" height="22" viewBox="0 0 22 22" fill="none" xmlns="http://www.w3.org/2000/svg">
<path fill-rule="evenodd" clip-rule="evenodd" d="M6.5336 8.74362C7.63753 7.17485 8.3266 5.37472 8.60304 3.33679C8.62938 3.14265 8.7668 2.98123 8.95542 2.92286C10.8565 2.33452 11.9373 3.26943 11.9195 5.40122C11.916 5.81502 11.8969 6.18283 11.8563 6.74537C11.7655 8.00189 11.7727 8.34479 11.9134 8.57552C12.0486 8.79732 12.4876 8.87304 13.5259 8.67591C13.8535 8.61371 14.1822 8.5432 14.5462 8.45851C14.7069 8.42113 15.8644 8.1387 16.1603 8.07482C16.7247 7.95295 17.1296 7.90138 17.4857 7.92322C18.4504 7.98238 18.9623 8.6035 19.0508 9.79348C19.2066 11.8891 18.7252 16.0985 18.245 17.6489C17.7543 19.2333 16.8986 19.8314 14.8444 19.8675C13.5238 19.8907 11.4925 19.8907 8.74126 19.8674C8.03893 19.8511 7.40245 19.7151 6.83629 19.4608C6.99522 19.1318 7.08421 18.7632 7.08421 18.374V10.31C7.08421 9.71802 6.8783 9.17371 6.5336 8.74362Z" fill="#1565D8"/>
<path opacity="0.3" fill-rule="evenodd" clip-rule="evenodd" d="M3.52526 8.79797C2.68288 8.79797 2 9.47492 2 10.31V18.374C2 19.209 2.68288 19.886 3.52526 19.886H4.54211C5.38448 19.886 6.06737 19.209 6.06737 18.374V10.31C6.06737 9.47492 5.38448 8.79797 4.54211 8.79797H3.52526Z" fill="#1565D8"/>
</svg>
